<svg version="1.1" xmlns="http://www.w3.org/2000/svg"
    xmlns:xlink="http://www.w3.org/1999/xlink" width="4096.00" height="2341.00" viewBox="0 0 4096.0 2341.0"
    style="display: block; margin: auto;">
  <!-- add your SVG content here -->
    <g id="document" transform="scale(13.653333333333334 13.653333333333334) translate(150.0 85.93492781728075)">
        <path
            d="M-80.8929,37.1709 L-80.8929,10.3317 C-80.8929,3.96693 -86.0307,-1.17086 -92.3954,-1.17086 C-98.7602,-1.17086 -103.898,3.96693 -103.898,10.3317 L-103.898,37.1709 L-96.2296,37.1709 L-96.2296,10.3317 C-96.2296,8.22286 -94.5042,6.49748 -92.3954,6.49748 C-90.2866,6.49748 -88.5613,8.22286 -88.5613,10.3317 L-88.5613,37.1709 L-80.8929,37.1709 Z "
            fill="#21426f" fill-opacity="1.00" />
        <path d="M-118.833,36.75 L-111.333,36.75 L-111.333,-0.75 L-118.833,-0.75 L-118.833,36.75 Z " fill="#21426f"
            fill-opacity="1.00" />
        <path
            d="M-67.4017,18 L-67.4017,36.75 L-59.9017,36.75 L-59.9017,18 C-59.9017,7.65 -68.3017,-0.75 -78.6517,-0.75 L-78.6517,6.75 C-72.4267,6.75 -67.4017,11.775 -67.4017,18 Z "
            fill="#21426f" fill-opacity="1.00" />
        <path
            d="M-6.20625,18.4731 L-6.20625,37.2752 L-13.7271,37.2752 L-13.7271,18.4731 C-13.7271,8.09424 -5.30375,-0.329139 5.07506,-0.329139 L5.07506,7.19174 C-1.16726,7.19174 -6.20625,12.2307 -6.20625,18.4731 Z "
            fill="#21426f" fill-opacity="1.00" />
        <path
            d="M34.3926,-0.329139 C31.497,-0.329139 28.8647,0.761388 26.8717,2.52879 C24.8787,0.723783 22.2463,-0.329139 19.3508,-0.329139 C13.1085,-0.329139 8.06949,4.70985 8.06949,10.9522 L8.06949,37.2752 L15.5904,37.2752 L15.5904,10.9522 C15.5904,8.88393 17.2826,7.19174 19.3508,7.19174 C21.419,7.19174 23.1112,8.88393 23.1112,10.9522 L23.1112,37.2752 L30.6321,37.2752 L30.6321,10.9522 C30.6321,8.88393 32.3243,7.19174 34.3926,7.19174 C36.4608,7.19174 38.153,8.88393 38.153,10.9522 L38.153,37.2752 L45.6739,37.2752 L45.6739,10.9522 C45.6739,4.70985 40.6349,-0.329139 34.3926,-0.329139 Z "
            fill="#21426f" fill-opacity="1.00" />
        <path
            d="M73.7757,37.2231 L73.7757,10.9 C73.7757,4.65766 68.7367,-0.381329 62.4944,-0.381329 C56.252,-0.381329 51.213,4.65766 51.213,10.9 L51.213,37.2231 L58.7339,37.2231 L58.7339,10.9 C58.7339,8.83174 60.4261,7.13955 62.4944,7.13955 C64.5626,7.13955 66.2548,8.83174 66.2548,10.9 L66.2548,37.2231 L73.7757,37.2231 Z "
            fill="#21426f" fill-opacity="1.00" />
        <path
            d="M-47.3891,15.3289 C-45.798,10.8273 -41.568,7.64506 -36.523,7.64506 C-31.5168,7.64506 -27.248,10.8273 -25.6569,15.3289 L-17.7014,15.3289 C-19.4477,6.59726 -27.2092,1.06581e-14 -36.4842,1.06581e-14 C-45.7592,1.06581e-14 -53.5206,6.59726 -55.267,15.3289 L-47.3891,15.3289 Z M-25.6569,23.0128 C-27.248,27.5145 -31.478,30.6967 -36.523,30.6967 C-41.5292,30.6967 -45.798,27.5145 -47.3891,23.0128 L-55.3058,23.0128 C-53.5595,31.7445 -45.798,38.3417 -36.523,38.3417 C-27.248,38.3417 -19.4865,31.7445 -17.7402,23.0128 L-25.6569,23.0128 Z "
            fill="#21426f" fill-opacity="1.00" />
        <path d="M82.8698,37.6044 L90.3907,37.6044 L90.3907,-2.4869e-14 L82.8698,-2.4869e-14 L82.8698,37.6044 Z "
            fill="#21426f" fill-opacity="1.00" />
        <path d="M99.4848,36.5983 L107.006,36.5983 L107.006,-1.00613 L99.4848,-1.00613 L99.4848,36.5983 Z "
            fill="#21426f" fill-opacity="1.00" />
        <path d="M51.213,15.5398 L51.213,20.0523 L73.7757,20.0523 L73.7757,15.5398 L51.213,15.5398 Z " fill="#21426f"
            fill-opacity="1.00" />
        <path d="M97.9115,3.5064 L97.9115,-1.00613 L75.3489,-1.00613 L75.3489,3.5064 L97.9115,3.5064 Z " fill="#21426f"
            fill-opacity="1.00" />
        <path d="M142.44,-1.00613 L126.474,13.2408 L108.579,-1.00612 L142.44,-1.00613 Z " fill="#21426f"
            fill-opacity="1.00" />
        <path d="M110.238,36.5983 L126.468,23.0124 L144.098,36.5983 L110.238,36.5983 Z " fill="#21426f"
            fill-opacity="1.00" />
        <path
            d="M-111.879,-6.44833 L-111.333,-6.47809 L-111.363,-6.94436 L-111.908,-6.9146 C-111.928,-7.02373 -111.948,-7.14278 -111.968,-7.2519 L-111.452,-7.42055 L-111.591,-7.85706 L-112.117,-7.67849 C-112.156,-7.7777 -112.206,-7.88682 -112.256,-7.98603 L-111.789,-8.28365 L-112.037,-8.67055 L-112.504,-8.37294 C-112.573,-8.46222 -112.642,-8.55151 -112.722,-8.64079 L-112.345,-9.03762 L-112.692,-9.35508 L-113.069,-8.95825 C-113.158,-9.0277 -113.258,-9.09714 -113.347,-9.15667 L-113.079,-9.63286 L-113.486,-9.86103 L-113.754,-9.38484 C-113.853,-9.43444 -113.962,-9.47413 -114.071,-9.51381 L-113.932,-10.0396 L-114.388,-10.1586 L-114.527,-9.63286 C-114.637,-9.6527 -114.756,-9.66262 -114.865,-9.67254 L-114.865,-10.2281 L-115.331,-10.2281 L-115.331,-9.68246 C-115.44,-9.67254 -115.559,-9.66262 -115.668,-9.64278 L-115.807,-10.1686 L-116.254,-10.0495 L-116.115,-9.52373 C-116.224,-9.48405 -116.333,-9.44436 -116.432,-9.39476 L-116.7,-9.87095 L-117.107,-9.6527 L-116.839,-9.17651 C-116.938,-9.11698 -117.027,-9.04754 -117.117,-8.97809 L-117.494,-9.37492 L-117.841,-9.05746 L-117.464,-8.66063 C-117.543,-8.58127 -117.613,-8.49198 -117.682,-8.39278 L-118.148,-8.6904 L-118.396,-8.30349 L-117.93,-8.00587 C-117.99,-7.90667 -118.029,-7.80746 -118.069,-7.69833 L-118.585,-7.86698 L-118.724,-7.43047 L-118.208,-7.26182 C-118.228,-7.1527 -118.258,-7.03365 -118.267,-6.92452 L-118.813,-6.95428 L-118.843,-6.48801 L-118.297,-6.45825 C-118.297,-6.34913 -118.287,-6.23008 -118.277,-6.11103 L-118.813,-6.01182 L-118.724,-5.55547 L-118.188,-5.65468 C-118.158,-5.54555 -118.129,-5.43643 -118.089,-5.3273 L-118.585,-5.09913 L-118.387,-4.67254 L-117.89,-4.90071 C-117.831,-4.80151 -117.771,-4.7023 -117.702,-4.61301 L-118.129,-4.26579 L-117.831,-3.90865 L-117.404,-4.25587 C-117.325,-4.17651 -117.246,-4.09714 -117.156,-4.0277 L-117.474,-3.59119 L-117.097,-3.32333 L-116.779,-3.75984 C-116.68,-3.70032 -116.581,-3.65071 -116.482,-3.59119 L-116.68,-3.08524 L-116.254,-2.91659 L-116.055,-3.42254 C-115.946,-3.39278 -115.837,-3.36301 -115.718,-3.33325 L-115.787,-2.78762 L-115.321,-2.72809 L-115.252,-3.27373 C-115.192,-3.27373 -115.142,-3.26381 -115.083,-3.26381 C-115.023,-3.26381 -114.974,-3.26381 -114.914,-3.27373 L-114.845,-2.72809 L-114.379,-2.78762 L-114.448,-3.33325 C-114.339,-3.35309 -114.22,-3.38286 -114.111,-3.42254 L-113.912,-2.91659 L-113.486,-3.08524 L-113.684,-3.59119 C-113.585,-3.64079 -113.486,-3.6904 -113.387,-3.75984 L-113.069,-3.32333 L-112.692,-3.59119 L-113.01,-4.0277 C-112.92,-4.09714 -112.841,-4.17651 -112.762,-4.25587 L-112.335,-3.90865 L-112.037,-4.26579 L-112.464,-4.61301 C-112.404,-4.71222 -112.335,-4.80151 -112.275,-4.90071 L-111.779,-4.67254 L-111.581,-5.09913 L-112.077,-5.3273 C-112.037,-5.42651 -111.998,-5.54555 -111.978,-5.65468 L-111.442,-5.55547 L-111.353,-6.01182 L-111.888,-6.11103 C-111.888,-6.21024 -111.879,-6.3392 -111.879,-6.44833 Z "
            fill="#3162a6" fill-opacity="1.00" />
        <path
            d="M106.504,-6.34727 L107.05,-6.37707 L107.02,-6.84402 L106.474,-6.81422 C106.454,-6.92351 106.434,-7.04273 106.414,-7.15201 L106.931,-7.32091 L106.792,-7.75805 L106.265,-7.57922 C106.225,-7.67857 106.176,-7.78786 106.126,-7.88721 L106.593,-8.18526 L106.345,-8.57273 L105.878,-8.27468 C105.808,-8.3641 105.739,-8.45351 105.659,-8.54293 L106.037,-8.94033 L105.689,-9.25826 L105.311,-8.86085 C105.222,-8.9304 105.123,-8.99994 105.033,-9.05955 L105.301,-9.53644 L104.894,-9.76495 L104.626,-9.28806 C104.527,-9.33774 104.417,-9.37748 104.308,-9.41722 L104.447,-9.94378 L103.99,-10.063 L103.851,-9.53644 C103.742,-9.55631 103.622,-9.56624 103.513,-9.57618 L103.513,-10.1325 L103.046,-10.1325 L103.046,-9.58611 C102.937,-9.57618 102.818,-9.56624 102.708,-9.54637 L102.569,-10.0729 L102.122,-9.95371 L102.261,-9.42715 C102.152,-9.38741 102.043,-9.34767 101.943,-9.298 L101.675,-9.77488 L101.268,-9.55631 L101.536,-9.07942 C101.437,-9.01981 101.347,-8.95027 101.258,-8.88072 L100.88,-9.27813 L100.533,-8.9602 L100.91,-8.5628 C100.831,-8.48332 100.761,-8.3939 100.692,-8.29455 L100.225,-8.5926 L99.9762,-8.20513 L100.443,-7.90708 C100.384,-7.80773 100.344,-7.70838 100.304,-7.59909 L99.7875,-7.76799 L99.6484,-7.33084 L100.165,-7.16195 C100.145,-7.05266 100.115,-6.93344 100.105,-6.82415 L99.559,-6.85396 L99.5292,-6.38701 L100.076,-6.3572 C100.076,-6.24792 100.086,-6.1287 100.095,-6.00948 L99.559,-5.91012 L99.6484,-5.45311 L100.185,-5.55246 C100.215,-5.44317 100.244,-5.33389 100.284,-5.2246 L99.7875,-4.99609 L99.9862,-4.56889 L100.483,-4.79739 C100.543,-4.69804 100.602,-4.59869 100.672,-4.50927 L100.244,-4.16155 L100.543,-3.80388 L100.97,-4.15161 C101.049,-4.07213 101.129,-3.99265 101.218,-3.9231 L100.9,-3.48596 L101.278,-3.21771 L101.596,-3.65486 C101.695,-3.59524 101.794,-3.54557 101.894,-3.48596 L101.695,-2.97927 L102.122,-2.81037 L102.321,-3.31706 C102.43,-3.28726 102.539,-3.25745 102.659,-3.22765 L102.589,-2.68121 L103.056,-2.6216 L103.126,-3.16804 C103.185,-3.16804 103.235,-3.1581 103.295,-3.1581 C103.354,-3.1581 103.404,-3.1581 103.463,-3.16804 L103.533,-2.6216 L104,-2.68121 L103.93,-3.22765 C104.04,-3.24752 104.159,-3.27732 104.268,-3.31706 L104.467,-2.81037 L104.894,-2.97927 L104.695,-3.48596 C104.795,-3.53563 104.894,-3.58531 104.993,-3.65486 L105.311,-3.21771 L105.689,-3.48596 L105.371,-3.9231 C105.46,-3.99265 105.54,-4.07213 105.619,-4.15161 L106.047,-3.80388 L106.345,-4.16155 L105.917,-4.50927 C105.977,-4.60863 106.047,-4.69804 106.106,-4.79739 L106.603,-4.56889 L106.802,-4.99609 L106.305,-5.2246 C106.345,-5.32395 106.384,-5.44317 106.404,-5.55246 L106.941,-5.45311 L107.03,-5.91012 L106.494,-6.00948 C106.494,-6.10883 106.504,-6.23798 106.504,-6.34727 Z "
            fill="#3162a6" fill-opacity="1.00" />
    </g>
</svg>